<?xml version="1.0" encoding="utf-8"?>
<!-- Generator: Adobe Illustrator 25.0.1, SVG Export Plug-In . SVG Version: 6.00 Build 0)  -->
<svg version="1.1" id="Capa_1" xmlns="http://www.w3.org/2000/svg" xmlns:xlink="http://www.w3.org/1999/xlink" x="0px" y="0px"
	 viewBox="0 0 1487.2 1052.4" style="enable-background:new 0 0 1487.2 1052.4;" xml:space="preserve">
<style type="text/css">
	.st0{fill:#FFFFFF;stroke:#8B178F;stroke-width:5;}
	.st1{fill:#FFFFFF;stroke:#FF5500;stroke-width:5;}
	.st2{fill:#FF5500;}
	.st3{fill:none;stroke:#8B178F;stroke-width:5;stroke-linecap:round;}
	.st4{fill:#FF5500;stroke:#8B178F;stroke-width:5;stroke-linecap:round;}
</style>
<g transform="translate(0 8.3704e-5)">
	<path class="st0" d="M738,319.3c0,48.8-39.6,88.4-88.4,88.4s-88.4-39.6-88.4-88.4s39.6-88.4,88.4-88.4S738,270.5,738,319.3z"/>
	<g transform="matrix(.29674 0 0 .29674 621.18 246.21)">
		<path d="M95.9,81.7c22.5,0,40.8-18.3,40.8-40.8S118.4,0,95.9,0S55,18.3,55,40.8S73.3,81.7,95.9,81.7z"/>
		<path d="M95.9,40.8"/>
		<path d="M52.2,90.7c-28.9,0-52.2,23.6-52.2,53v125.4c0,24.4,35.7,24.4,35.7,0V154.4h8.4v313.9c0,32.6,47.5,31.6,47.5,0V286.1h8.2
			v182.2c0,31.6,47.8,32.6,47.8,0V154.4h8.2v114.6c0,24.6,35.5,24.6,35.4,0V144.4c0-27.1-21.1-53.7-52.8-53.7L52.2,90.7L52.2,90.7z"
			/>
	</g>
	<path class="st0" d="M312.6,189.4c0,48.8-39.6,88.4-88.4,88.4s-88.4-39.6-88.4-88.4s39.6-88.4,88.4-88.4S312.6,140.6,312.6,189.4z"
		/>
	<g transform="matrix(.29674 0 0 .29674 195.86 116.34)">
		<path d="M95.9,81.7c22.5,0,40.8-18.3,40.8-40.8S118.4,0,95.9,0S55,18.3,55,40.8S73.3,81.7,95.9,81.7z"/>
		<path d="M95.9,40.8"/>
		<path d="M52.2,90.7c-28.9,0-52.2,23.6-52.2,53v125.4c0,24.4,35.7,24.4,35.7,0V154.4h8.4v313.9c0,32.6,47.5,31.6,47.5,0V286.1h8.2
			v182.2c0,31.6,47.8,32.6,47.8,0V154.4h8.2v114.6c0,24.6,35.5,24.6,35.4,0V144.4c0-27.1-21.1-53.7-52.8-53.7L52.2,90.7L52.2,90.7z"
			/>
	</g>
	<path class="st0" d="M372.4,807c0,48.8-39.6,88.4-88.4,88.4s-88.4-39.6-88.4-88.4s39.6-88.4,88.4-88.4S372.4,758.2,372.4,807z"/>
	<g transform="matrix(.29674 0 0 .29674 255.62 733.95)">
		<path d="M95.9,81.7c22.5,0,40.8-18.3,40.8-40.8S118.4,0,95.9,0S55,18.3,55,40.8S73.3,81.7,95.9,81.7z"/>
		<path d="M95.9,40.8"/>
		<path d="M52.2,90.7c-28.9,0-52.2,23.6-52.2,53v125.4c0,24.4,35.7,24.4,35.7,0V154.4h8.4v313.9c0,32.6,47.5,31.6,47.5,0V286.1h8.2
			v182.2c0,31.6,47.8,32.6,47.8,0V154.4h8.2v114.6c0,24.6,35.5,24.6,35.4,0V144.4c0-27.1-21.1-53.7-52.8-53.7L52.2,90.7L52.2,90.7z"
			/>
	</g>
	<path class="st0" d="M1142.4,418.4c0,48.8-39.6,88.4-88.4,88.4c-48.8,0-88.4-39.6-88.4-88.4s39.6-88.4,88.4-88.4
		C1102.8,330,1142.4,369.6,1142.4,418.4z"/>
	<g transform="matrix(.29674 0 0 .29674 1025.6 345.34)">
		<path d="M95.9,81.7c22.5,0,40.8-18.3,40.8-40.8S118.4,0,95.9,0S55,18.3,55,40.8S73.3,81.7,95.9,81.7z"/>
		<path d="M95.9,40.8"/>
		<path d="M52.2,90.7c-28.9,0-52.2,23.6-52.2,53v125.4c0,24.4,35.7,24.4,35.7,0V154.4h8.4v313.9c0,32.6,47.5,31.6,47.5,0V286.1h8.2
			v182.2c0,31.6,47.8,32.6,47.8,0V154.4h8.2v114.6c0,24.6,35.5,24.6,35.4,0V144.4c0-27.1-21.1-53.7-52.8-53.7L52.2,90.7L52.2,90.7z"
			/>
	</g>
	<path class="st1" d="M837.5,707.6c0,48.8-39.6,88.4-88.4,88.4s-88.4-39.6-88.4-88.4s39.6-88.4,88.4-88.4S837.5,658.8,837.5,707.6z"
		/>
	<g transform="matrix(.29674 0 0 .29674 720.69 634.55)">
		<g>
			<path class="st2" d="M95.9,81.7c22.5,0,40.8-18.3,40.8-40.8S118.4,0,95.9,0S55,18.3,55,40.8S73.3,81.7,95.9,81.7z"/>
			<path class="st2" d="M95.9,40.8"/>
			<path class="st2" d="M52.2,90.7c-28.9,0-52.2,23.6-52.2,53v125.4c0,24.4,35.7,24.4,35.7,0V154.4h8.4v313.9
				c0,32.6,47.5,31.6,47.5,0V286.1h8.2v182.2c0,31.6,47.8,32.6,47.8,0V154.4h8.2v114.6c0,24.6,35.5,24.6,35.4,0V144.4
				c0-27.1-21.1-53.7-52.8-53.7L52.2,90.7L52.2,90.7z"/>
		</g>
	</g>
	<path class="st0" d="M1257.6,887.1c0,48.8-39.6,88.4-88.4,88.4c-48.8,0-88.4-39.6-88.4-88.4s39.6-88.4,88.4-88.4
		C1218,798.7,1257.6,838.3,1257.6,887.1z"/>
	<g transform="matrix(.29674 0 0 .29674 1140.9 814.03)">
		<path d="M95.9,81.7c22.5,0,40.8-18.3,40.8-40.8S118.4,0,95.9,0S55,18.3,55,40.8S73.3,81.7,95.9,81.7z"/>
		<path d="M95.9,40.8"/>
		<path d="M52.2,90.7c-28.9,0-52.2,23.6-52.2,53v125.4c0,24.4,35.7,24.4,35.7,0V154.4h8.4v313.9c0,32.6,47.5,31.6,47.5,0V286.1h8.2
			v182.2c0,31.6,47.8,32.6,47.8,0V154.4h8.2v114.6c0,24.6,35.5,24.6,35.4,0V144.4c0-27.1-21.1-53.7-52.8-53.7L52.2,90.7L52.2,90.7z"
			/>
	</g>
	<path class="st0" d="M1339.5,160.9c0,48.8-39.6,88.4-88.4,88.4c-48.8,0-88.4-39.6-88.4-88.4s39.6-88.4,88.4-88.4
		C1299.9,72.5,1339.5,112.1,1339.5,160.9z"/>
	<g transform="matrix(.29674 0 0 .29674 1222.7 87.824)">
		<path d="M95.9,81.7c22.5,0,40.8-18.3,40.8-40.8S118.4,0,95.9,0S55,18.3,55,40.8S73.3,81.7,95.9,81.7z"/>
		<path d="M95.9,40.8"/>
		<path d="M52.2,90.7c-28.9,0-52.2,23.6-52.2,53v125.4c0,24.4,35.7,24.4,35.7,0V154.4h8.4v313.9c0,32.6,47.5,31.6,47.5,0V286.1h8.2
			v182.2c0,31.6,47.8,32.6,47.8,0V154.4h8.2v114.6c0,24.6,35.5,24.6,35.4,0V144.4c0-27.1-21.1-53.7-52.8-53.7L52.2,90.7L52.2,90.7z"
			/>
	</g>
	<path class="st3" d="M320.1,216.9l236.1,68.7"/>
	<path class="st3" d="M744.2,348.8L955.1,398"/>
	<path class="st3" d="M1113.4,340l78.6-99.9"/>
	<path class="st3" d="M666.9,416.6L724,611.3"/>
	<path class="st4" d="M988.5,493.1L828.1,648.8"/>
	<path class="st3" d="M381.9,787.1l270.2-60.4"/>
	<path class="st3" d="M830.4,764.5l242.7,98.6"/>
	<path class="st3" d="M662.2,661.5L276.3,274.4"/>
	<path class="st3" d="M572,378.9L329.8,718.6"/>
	<path class="st3" d="M741.1,279.3l411.2-104.5"/>
	<path class="st3" d="M1241.2,261.6l-54.1,527.9"/>
	<path class="st3" d="M1084.1,511.6l48.9,283"/>
</g>
</svg>
