<?xml version="1.0" encoding="utf-8"?>
<!-- Generator: Adobe Illustrator 25.0.1, SVG Export Plug-In . SVG Version: 6.00 Build 0)  -->
<svg version="1.1" id="Capa_1" xmlns="http://www.w3.org/2000/svg" xmlns:xlink="http://www.w3.org/1999/xlink" x="0px" y="0px"
	 viewBox="0 0 1280 720" style="enable-background:new 0 0 1280 720;" xml:space="preserve">
<style type="text/css">
	.st0{fill:#FF4613;}
	.st1{fill:#006FB9;}
	.st2{fill:#FFCB10;}
</style>
<g>
	<g>
		<g>
			<g>
				<path class="st0" d="M409.3,9.9h32.2v31.3H471V9.9h32.2v94.8H471V73h-29.5v31.7h-32.2V9.9L409.3,9.9z"/>
				<path class="st0" d="M545.6,41.3h-28.4V9.9h89v31.4h-28.4v63.4h-32.2L545.6,41.3L545.6,41.3z"/>
				<path class="st0" d="M620.4,9.9H654l20.7,33.3l20.7-33.3h33.6v94.8h-32.1v-47l-22.2,33.7h-0.6l-22.2-33.7v47h-31.5L620.4,9.9
					L620.4,9.9z"/>
				<path class="st0" d="M744.9,9.9h32.2v63.5h45.3v31.3h-77.5L744.9,9.9L744.9,9.9z"/>
			</g>
			<path class="st0" d="M362.2,148l46.1,508.4l206.8,56.5l207.4-56.5L868.7,148H362.2z M772.6,268.7l-2.9,31.6l-1.3,14h-0.2H615.4
				h-0.2h-89.5l5.8,63.8h83.7h0.2h130.1h17.1l-1.6,16.7l-14.9,164.2l-1,10.5L615.4,605v0l-0.3,0.1l-129.9-35.5l-8.9-97.9h29.3H540
				l4.5,49.7l70.6,18.7l0.1,0l0,0l70.7-18.8l7.4-80.9h-77.9h-0.2H473.6L458,268.7l-1.5-16.7h158.8h0.2h158.6L772.6,268.7z"/>
		</g>
	</g>
</g>
<g id="g3013_2_" transform="translate(119,276.3622)">
	<g>
		<path id="path2999_9_" class="st1" d="M-33.4-171.3h52.6v24.7h-30.6v24.7h30.6v24.7h-52.6V-171.3z"/>
		<path id="path3001_9_" class="st1" d="M29.8-171.3h52.6v21.5H51.8v4.3h30.6v49.3H29.8v-22.5h30.6v-4.3H29.8V-171.3z"/>
		<path id="path3003_9_" class="st1" d="M92.9-171.3h52.6v21.5h-30.6v4.3h30.6v49.3H92.9v-22.5h30.6v-4.3H92.9V-171.3z"/>
		<path class="st1" d="M-115-63.4l31.6,397.2l141.7,44.1l142.1-44.2l31.6-397.1L-115-63.4L-115-63.4z M159.2,116.4l-1.1,13.1
			L148,257.8l-0.7,8.2l-88.9,27.6v0l-0.2,0.1l-89-27.7l-6.1-76.5h20.1H6.8l3.1,38.9L58.2,243l0,0l0,0l48.4-14.7l5-63.2H58.4h-0.1
			h-97l-3.9-48.7H58.3h0.1h57.1l3.9-49.9h-61h-0.1H-46.5l-3.9-48.7H58.3h0.1h108.6L159.2,116.4z"/>
	</g>
</g>
<g>
	<g>
		<path class="st2" d="M1078.1,212.4H881.2l36.9,396.9l160,45l159.9-45l37-396.9L1078.1,212.4L1078.1,212.4z M1178.9,541.7
			l-100.8,28.4l-100.8-28.4l-7.1-76h49.8l3.3,38l54.8,15.7l54-15.4l5.5-62.9h-59.5H968.3l-0.3,0.9l13.8-148.6h96.2h103.1l11,77.8
			h-50.2l-1.8-28.5h-62h-55.8l-2.3,49.8h58.1h114.6L1178.9,541.7z"/>
		<g>
			<polygon class="st2" points="1039.8,153.9 1004.8,153.9 1004.8,178.8 1039.8,178.8 1058.5,178.8 1064.9,178.8 1064.9,104.7 
				1039.8,104.7 			"/>
			<path class="st2" d="M1151.4,105.1h-61.1c0,0,0,13,0,26c8.2,8.1,12.4,12,24.3,23.7c-6.9,0-24.3,0-24.3,0v23.7h61.1v-23.7
				L1127,131h24.4V105.1z"/>
		</g>
	</g>
</g>
</svg>
